<svg viewBox="890 163.619 4731 6946.381" width="3rem" height="3rem" xmlns="http://www.w3.org/2000/svg"><defs><linearGradient gradientUnits="userSpaceOnUse" x1="3255.5" y1="163.619" x2="3255.5" y2="7110" id="gradient-0"><stop stop-color="rgba(255, 255, 255, 10)" offset="0"></stop><stop stop-color="rgba(255, 255, 255, 10)"  offset="1"></stop></linearGradient></defs><g id="l7QSXdAKSUeTBWP2VWQOq3L" fill="rgb(255,92,65)" style="transform: none;"><g><path id="p1B6amrUnC" d="M890 6328 c0 -714 2 -797 20 -948 51 -434 182 -802 413 -1166 145 -227 366 -476 567 -637 118 -94 315 -225 440 -291 58 -31 102 -56 98 -56 -4 0 -82 27 -175 61 -713 256 -1107 399 -1220 440 -72 27 -134 49 -137 49 -16 0 4 -284 34 -465 35 -217 125 -501 224 -710 140 -293 304 -524 540 -761 205 -204 367 -328 597 -456 197 -110 286 -145 1019 -405 85 -30 184 -65 220 -78 36 -13 162 -58 280 -100 118 -42 244 -87 280 -100 128 -46 488 -174 675 -240 105 -36 204 -72 220 -80 17 -7 41 -16 55 -20 32 -9 460 -161 524 -186 27 -11 51 -17 53 -15 2 2 4 433 4 957 l-1 954 -128 46 c-70 26 -224 82 -342 124 -118 42 -254 91 -302 108 l-88 32 0 965 c0 531 -4 970 -8 976 -4 6 -41 22 -82 37 -171 58 -924 322 -1190 417 -74 26 -171 60 -215 75 -44 14 -89 30 -100 35 -11 4 -36 14 -55 21 -19 7 -38 18 -42 23 -4 6 -8 321 -8 699 l0 688 -42 18 c-24 10 -77 30 -118 44 -41 15 -138 49 -215 77 -77 28 -187 68 -245 89 -58 21 -242 89 -410 151 -168 61 -386 141 -485 176 -239 86 -584 213 -613 225 -13 5 -27 9 -32 9 -6 0 -10 -293 -10 -782z" style="fill: url(&quot;#gradient-0&quot;);"></path></g></g></svg>